<?xml version="1.0" encoding="UTF-8"?>
<!DOCTYPE svg PUBLIC "-//W3C//DTD SVG 1.1//EN" "http://www.w3.org/Graphics/SVG/1.1/DTD/svg11.dtd">
<svg xmlns="http://www.w3.org/2000/svg" version="1.1" width="50px" height="50px" style="shape-rendering:geometricPrecision; text-rendering:geometricPrecision; image-rendering:optimizeQuality; fill-rule:evenodd; clip-rule:evenodd" xmlns:xlink="http://www.w3.org/1999/xlink">
<g><path style="opacity:0.993" fill="#a1dd96" d="M -0.5,-0.5 C 10.1667,-0.5 20.8333,-0.5 31.5,-0.5C 31.6664,7.50694 31.4997,15.5069 31,23.5C 28.9683,28.3648 25.4683,31.6982 20.5,33.5C 19.0748,37.6682 19.4081,41.6682 21.5,45.5C 23.1151,46.154 24.7818,46.654 26.5,47C 27.2524,47.6708 27.5858,48.5041 27.5,49.5C 19.5,49.5 11.5,49.5 3.5,49.5C 3.41423,48.5041 3.74756,47.6708 4.5,47C 9.85846,46.4708 12.1918,43.4708 11.5,38C 11.1667,36.5 10.8333,35 10.5,33.5C 5.51115,31.5065 1.84449,28.1731 -0.5,23.5C -0.5,15.5 -0.5,7.5 -0.5,-0.5 Z"/></g>
<g><path style="opacity:0.984" fill="#a1dd95" d="M 35.5,-0.5 C 36.1667,-0.5 36.8333,-0.5 37.5,-0.5C 36.8333,20.8333 36.1667,20.8333 35.5,-0.5 Z"/></g>
<g><path style="opacity:0.984" fill="#a1dd95" d="M 41.5,-0.5 C 42.1667,-0.5 42.8333,-0.5 43.5,-0.5C 42.8333,20.8333 42.1667,20.8333 41.5,-0.5 Z"/></g>
<g><path style="opacity:0.961" fill="#a2dd95" d="M 47.5,-0.5 C 48.1667,-0.5 48.8333,-0.5 49.5,-0.5C 49.5,7.16667 49.5,14.8333 49.5,22.5C 47.9468,24.385 45.9468,25.385 43.5,25.5C 43.5,33.5 43.5,41.5 43.5,49.5C 42.8333,49.5 42.1667,49.5 41.5,49.5C 41.3336,40.8269 41.5002,32.1603 42,23.5C 45,23.1667 46.6667,21.5 47,18.5C 47.4995,12.1754 47.6662,5.84209 47.5,-0.5 Z"/></g>
</svg>
