<?xml version="1.0" encoding="UTF-8"?>
<!DOCTYPE svg PUBLIC "-//W3C//DTD SVG 1.1//EN" "http://www.w3.org/Graphics/SVG/1.1/DTD/svg11.dtd">
<svg xmlns="http://www.w3.org/2000/svg" version="1.1" width="100px" height="100px" style="shape-rendering:geometricPrecision; text-rendering:geometricPrecision; image-rendering:optimizeQuality; fill-rule:evenodd; clip-rule:evenodd" xmlns:xlink="http://www.w3.org/1999/xlink">
<g><path style="opacity:0.996" fill="#a2de96" d="M -0.5,-0.5 C 20.8333,-0.5 42.1667,-0.5 63.5,-0.5C 63.6666,14.1705 63.4999,28.8371 63,43.5C 59.9068,56.094 52.0735,63.7607 39.5,66.5C 39.1439,74.2382 39.6439,81.9048 41,89.5C 42.1094,91.8147 43.9427,93.3147 46.5,94C 49.2241,94.2695 51.8908,94.7695 54.5,95.5C 55.4287,96.6888 55.762,98.0222 55.5,99.5C 39.5,99.5 23.5,99.5 7.5,99.5C 7.23798,98.0222 7.57131,96.6888 8.5,95.5C 11.1092,94.7695 13.7759,94.2695 16.5,94C 19.0573,93.3147 20.8906,91.8147 22,89.5C 23.3561,81.9048 23.8561,74.2382 23.5,66.5C 10.925,63.5914 2.925,55.9247 -0.5,43.5C -0.5,28.8333 -0.5,14.1667 -0.5,-0.5 Z"/></g>
<g><path style="opacity:0.992" fill="#a1dd95" d="M 71.5,-0.5 C 72.8333,-0.5 74.1667,-0.5 75.5,-0.5C 75.5,10.1667 75.5,20.8333 75.5,31.5C 74.1667,31.5 72.8333,31.5 71.5,31.5C 71.5,20.8333 71.5,10.1667 71.5,-0.5 Z"/></g>
<g><path style="opacity:0.992" fill="#a1dd95" d="M 83.5,-0.5 C 84.8333,-0.5 86.1667,-0.5 87.5,-0.5C 87.5,10.1667 87.5,20.8333 87.5,31.5C 86.1667,31.5 84.8333,31.5 83.5,31.5C 83.5,20.8333 83.5,10.1667 83.5,-0.5 Z"/></g>
<g><path style="opacity:0.974" fill="#a1dd96" d="M 95.5,-0.5 C 96.8333,-0.5 98.1667,-0.5 99.5,-0.5C 99.5,13.8333 99.5,28.1667 99.5,42.5C 97.2475,47.7436 93.2475,50.7436 87.5,51.5C 87.5,67.5 87.5,83.5 87.5,99.5C 86.1667,99.5 84.8333,99.5 83.5,99.5C 83.1672,82.1539 83.5005,64.8205 84.5,47.5C 90.7879,47.0446 94.2879,43.7112 95,37.5C 95.4999,24.8377 95.6666,12.1711 95.5,-0.5 Z"/></g>
</svg>
